<svg width="24" height="14" viewBox="0 0 24 14" fill="none" xmlns="http://www.w3.org/2000/svg">
<path d="M12.3848 7.88135C11.9505 7.88135 11.5515 7.76464 11.1878 7.53121C10.8241 7.29778 10.5309 6.98292 10.3084 6.58664C10.0912 6.19035 9.98264 5.74792 9.98264 5.25935C9.98264 4.77621 10.0912 4.33921 10.3084 3.94835C10.5309 3.55749 10.8241 3.24806 11.1878 3.02006C11.5515 2.78664 11.9505 2.66992 12.3848 2.66992C12.8082 2.66992 13.2018 2.78392 13.5655 3.01192C13.9292 3.23992 14.2224 3.54664 14.4449 3.93207C14.6675 4.31749 14.7788 4.75449 14.7788 5.24306C14.7788 5.73707 14.6675 6.18492 14.4449 6.58664C14.2278 6.98292 13.9374 7.29778 13.5736 7.53121C13.2099 7.76464 12.8136 7.88135 12.3848 7.88135ZM8.50878 13.2556C8.17221 13.2556 7.90621 13.1796 7.71078 13.0276C7.52078 12.8756 7.42578 12.6666 7.42578 12.4006C7.42578 12.0152 7.53978 11.6135 7.76778 11.1955C7.99578 10.7721 8.32421 10.3785 8.75307 10.0148C9.18735 9.64564 9.7085 9.34707 10.3165 9.11907C10.9299 8.88564 11.6166 8.76892 12.3766 8.76892C13.1366 8.76892 13.8206 8.88564 14.4286 9.11907C15.0421 9.34707 15.5632 9.64564 15.9921 10.0148C16.4264 10.3785 16.7575 10.7721 16.9855 11.1955C17.2135 11.6135 17.3275 12.0152 17.3275 12.4006C17.3275 12.6666 17.2298 12.8756 17.0344 13.0276C16.8389 13.1796 16.5729 13.2556 16.2364 13.2556H8.50878Z" fill="#20FF5E"/>
<path d="M1.47339 13.4166C1.28339 13.4166 1.12054 13.3515 0.984821 13.2212C0.849107 13.0909 0.78125 12.9308 0.78125 12.7408C0.78125 11.3674 0.976679 10.0618 1.36754 8.82407C1.75839 7.58093 2.30668 6.44364 3.01239 5.41221C3.72354 4.37536 4.55954 3.47693 5.52039 2.71693C6.48668 1.9515 7.54525 1.35978 8.69611 0.941783C9.85239 0.518355 11.0657 0.306641 12.336 0.306641C13.6117 0.306641 14.825 0.518355 15.9758 0.941783C17.1321 1.35978 18.1907 1.9515 19.1515 2.71693C20.1178 3.47693 20.9565 4.37536 21.6677 5.41221C22.3788 6.44364 22.9298 7.58093 23.3207 8.82407C23.7115 10.0618 23.907 11.3674 23.907 12.7408C23.907 12.9308 23.8364 13.0909 23.6952 13.2212C23.5595 13.3515 23.3967 13.4166 23.2067 13.4166C23.0221 13.4166 22.8647 13.3515 22.7344 13.2212C22.6041 13.0909 22.539 12.9308 22.539 12.7408C22.539 11.5194 22.3652 10.3576 22.0178 9.25564C21.6758 8.14821 21.1927 7.13307 20.5684 6.21021C19.9441 5.28735 19.2058 4.48664 18.3535 3.80807C17.5067 3.1295 16.573 2.60564 15.5524 2.2365C14.5372 1.86193 13.4651 1.67464 12.336 1.67464C11.2122 1.67464 10.1401 1.86193 9.11953 2.2365C8.10439 2.60564 7.17339 3.1295 6.32653 3.80807C5.47968 4.48664 4.74139 5.28735 4.11168 6.21021C3.48739 7.13307 3.00154 8.14821 2.65411 9.25564C2.31211 10.3576 2.14111 11.5194 2.14111 12.7408C2.14111 12.9308 2.07596 13.0909 1.94568 13.2212C1.81539 13.3515 1.65796 13.4166 1.47339 13.4166ZM5.03996 13.4085C4.84996 13.4085 4.68711 13.3434 4.55139 13.2131C4.42111 13.0882 4.35596 12.9335 4.35596 12.7489C4.35596 11.6524 4.54596 10.6101 4.92596 9.62207C5.31139 8.63407 5.84611 7.75193 6.53011 6.97564C7.21954 6.19936 8.02296 5.58321 8.94039 5.12721C8.89696 5.38236 8.88339 5.63478 8.89968 5.8845C8.91596 6.13421 8.95939 6.38393 9.02996 6.63364C8.36225 7.05707 7.78139 7.58635 7.28739 8.2215C6.79339 8.85121 6.41068 9.5515 6.13925 10.3224C5.87325 11.0878 5.74025 11.8966 5.74025 12.7489C5.74025 12.9335 5.66968 13.0882 5.52853 13.2131C5.38739 13.3434 5.22454 13.4085 5.03996 13.4085ZM19.6482 13.4085C19.4582 13.4085 19.2954 13.3434 19.1597 13.2131C19.024 13.0882 18.9561 12.9335 18.9561 12.7489C18.9561 11.9021 18.8204 11.0959 18.549 10.3305C18.283 9.55964 17.9057 8.85935 17.4171 8.22964C16.9285 7.59993 16.3477 7.07335 15.6745 6.64993C15.7451 6.40021 15.7885 6.14778 15.8048 5.89264C15.8265 5.6375 15.8184 5.38507 15.7804 5.13535C16.6924 5.59678 17.4904 6.21564 18.1744 6.99193C18.8584 7.76821 19.3877 8.65036 19.7622 9.63836C20.1422 10.6209 20.3322 11.6578 20.3322 12.7489C20.3322 12.9335 20.2644 13.0882 20.1287 13.2131C19.9984 13.3434 19.8382 13.4085 19.6482 13.4085Z" fill="#73E793"/>
</svg>
